<?xml version="1.0" encoding="utf-8"?>
<!-- Generator: Adobe Illustrator 15.0.2, SVG Export Plug-In . SVG Version: 6.00 Build 0)  -->
<!DOCTYPE svg PUBLIC "-//W3C//DTD SVG 1.1//EN" "http://www.w3.org/Graphics/SVG/1.1/DTD/svg11.dtd">
<svg version="1.1"
	 id="svg3544" inkscape:version="0.91 r13725" sodipodi:docname="meguk_logo.svg" inkscape:export-ydpi="35.973808" inkscape:export-xdpi="35.973808" inkscape:export-filename="/Users/romesh/git_repos/meguk2017.com/main/app/static/meguk_logo" xmlns:dc="http://purl.org/dc/elements/1.1/" xmlns:cc="http://creativecommons.org/ns#" xmlns:rdf="http://www.w3.org/1999/02/22-rdf-syntax-ns#" xmlns:svg="http://www.w3.org/2000/svg" xmlns:sodipodi="http://sodipodi.sourceforge.net/DTD/sodipodi-0.dtd" xmlns:inkscape="http://www.inkscape.org/namespaces/inkscape"
	 xmlns="http://www.w3.org/2000/svg" xmlns:xlink="http://www.w3.org/1999/xlink" x="0px" y="0px" width="546.031px"
	 height="116.016px" viewBox="0 0 546.031 116.016" enable-background="new 0 0 546.031 116.016" xml:space="preserve">
<sodipodi:namedview  id="namedview3705" inkscape:window-maximized="0" inkscape:cy="-35.132078" inkscape:cx="376.48492" inkscape:zoom="0.69118308" fit-margin-left="0" guidetolerance="10" fit-margin-top="0" gridtolerance="10" objecttolerance="10" showgrid="false" borderopacity="1" bordercolor="#666666" pagecolor="#ffffff" inkscape:current-layer="surface17590" inkscape:window-y="431" inkscape:window-x="20" fit-margin-bottom="0" fit-margin-right="0" inkscape:window-height="784" inkscape:window-width="1250" inkscape:pageshadow="2" inkscape:pageopacity="0">
	</sodipodi:namedview>
<rect id="rect3709" x="-6.041" y="-5.77" fill="#F7F7F7" stroke="#F7F7F7" stroke-width="2.6073" stroke-opacity="0.0078" width="556.076" height="126.669"/>
<path fill-rule="evenodd" clip-rule="evenodd" d="M365.024,116.922c-6.098,0-12.197,0-18.294,0
	c-10.639-0.452-22.206-0.167-32.882-0.59c-0.813,0.144-0.379-0.388,0-0.391c4.796-2.604,9.657-5.154,14.833-7.454
	c0.141-0.518-0.589-1.172-0.989-1.568c-2.969-2.952-8.263-4.507-11.866-6.865c0.84-1.949,1.491-4.049,2.473-5.885
	c-0.284-1.018-1.079-1.628-0.99-2.942c18.16-2.278,41.273-2.55,62.304-2.55c3.236,0,6.711,0.42,9.394,0
	c2.849-0.446,5.171-2.691,8.159-3.335c15.267-26.724,31.033-53.055,46.231-79.833c1.479-0.266,2.973-0.519,4.449-0.785
	c-13.96,27.828-28.237,55.403-42.275,83.168c33.563-0.425,67.2,0.791,99.634,0c-8.606-17.953-19.561-36.787-28.184-54.726
	c2.024-0.134,2.731,1.019,3.46,2.158c9.115,14.211,17.584,29.206,26.454,43.546c1.422,2.297,2.567,4.68,4.202,6.669
	c0.876,1.063,3.067,3.267,4.449,3.531c0.966,0.183,2.243-0.163,3.216-0.197c5.499-0.195,12.157,0.148,17.802,0
	c0.236,1.185,0.503,2.348,0.74,3.531c-1.101,0.304-2.269,0.554-3.46,0.785c-2.494,2.337-3.948,5.498-6.923,7.453
	c-0.541-0.618-1.384-0.994-2.226-1.373c0.681-1.944,2.336-3.115,3.212-4.904c-2.497,0.307-5.252,0.408-7.662,0.784
	c-0.873,0.615-0.381,2.314-0.989,3.14c-2.522,0.677-4.934,1.446-7.664,1.961c-0.848-1.812-1.697-3.622-2.719-5.295
	c-35.932,0.523-72.074,0.876-107.547,1.765c-3.561,5.674-6.353,11.959-9.394,18.046c-3.181-1.399-6.313-2.838-9.396-4.314
	c0.807-4.2,1.822-8.232,2.472-12.555c-6.134-0.811-12.569,0.033-19.034,0.393c-6.43,0.358-13.039,0.443-19.284,0.98
	c7.691,2.724,13.981,6.56,21.015,9.808c0.811,2.755,1.669,5.475,3.214,7.65C369.06,116.855,366.51,116.467,365.024,116.922z"/>
<g>
	<path fill-rule="evenodd" clip-rule="evenodd" d="M160.956,24.041c-2.151,0-4.303,0-6.455,0c-1.199-0.957-0.923-2.766-1.844-3.997
		c-3.023-4.045-11.673-4.738-16.601-2.767c-12.304,4.923-15.615,33.88-4.612,44.885c4.618,4.615,13.731,5.467,22.442,1.843
		c0-5.431,0-10.861,0-16.293c-3.793-0.716-8.915-0.103-13.219-0.307c0-1.947,0-3.894,0-5.841c6.763,0,13.526,0,20.289,0
		c0,8.813,0,17.625,0,26.438c-13.371,6.335-29.585,6.018-37.812-4.304c-6.84-8.582-7.131-22.617-4.919-33.509
		c2.281-11.23,10.356-19.209,21.828-19.982C151.433,9.439,159.592,14.012,160.956,24.041z"/>
	<path fill-rule="evenodd" clip-rule="evenodd" d="M20.466,26.193c-0.007,13.533,0.005,29.713,0,44.269c-2.152,0-4.304,0-6.456,0
		c0-19.471,0-38.94,0-58.411c2.562,0,5.124,0,7.686,0c5.698,13.977,11.76,27.59,17.83,41.194
		C45.246,39.7,50.763,25.953,56.126,12.051c2.562,0,5.124,0,7.686,0c0,19.471,0,38.941,0,58.411c-2.357,0-4.714,0-7.071,0
		c0.036-15.028-0.164-30.292,0.308-44.884c-4.637,12.169-9.479,24.134-14.142,36.275c-2.562,0-5.122,0-7.685,0
		C30.129,50.14,24.766,38.697,20.466,26.193z"/>
	<path fill-rule="evenodd" clip-rule="evenodd" d="M107.465,12.051c0.5,1.513,0.5,4.944,0,6.456c-8.403,0-16.805,0-25.208,0
		c0,6.149,0,12.297,0,18.445c7.379,0,14.756,0,22.135,0c0,1.947,0,3.895,0,5.841c-7.275,0-14.551,0-21.828,0
		c-0.716,6.457-0.102,14.245-0.307,21.211c9.121,0,18.241,0,27.361,0c0,2.152,0,4.305,0,6.457c-11.683,0-23.364,0-35.046,0
		c0.206-19.368-0.41-39.555,0.308-58.411C85.741,12.051,96.603,12.051,107.465,12.051z"/>
	<path fill-rule="evenodd" clip-rule="evenodd" d="M206.456,12.051c2.459,0,4.918,0,7.378,0c0,7.026,0,16.104,0,25.517
		c0,8.988-0.943,19.912,2.459,24.286c4.838,6.223,19.774,6.335,23.364-1.229c2.469-5.202,1.537-15.93,1.537-23.672
		c0-8.735,0-16.871,0-24.901c2.357,0,4.713,0,7.07,0c0,8.695,0,17.165,0,26.131c0,7.872,1.122,18.483-2.152,24.901
		c-6.137,12.035-32.38,12.493-38.121,0.31c-2.886-6.128-1.845-15.67-1.845-24.288c0-9.062,0-17.728,0-26.131
		C206.121,12.537,206.097,12.102,206.456,12.051z"/>
	<path fill-rule="evenodd" clip-rule="evenodd" d="M266.095,12.051c0,9.122,0,18.241,0,27.361
		c7.812-8.086,16.163-18.407,24.287-27.361c2.663,0,5.329,0,7.994,0c0.892,0.432-0.525,1.419-0.615,1.538
		c-6.712,8.545-15.806,17.252-22.751,25.823c8.867,10.4,19.278,20.893,27.361,31.05c-2.476-0.591-5.814,0.765-8.608,0
		c-2.13-0.584-5.255-5.328-7.07-7.379c-6.795-7.663-14.157-15.827-20.598-22.749c0,10.042,0,20.085,0,30.128
		c-2.562,0-5.124,0-7.686,0c0-19.471,0-38.94,0-58.411C260.971,12.051,263.533,12.051,266.095,12.051z"/>
	<path fill-rule="evenodd" clip-rule="evenodd" d="M108.081,79.685c5.988-1.333,9.045,2.51,9.222,7.069
		c0.402,10.271-14.756,10.738-14.756,0.307C102.547,83.156,104.528,80.474,108.081,79.685z M112.384,91.366
		c2.144-1.475,1.864-6.877,0.308-8.3c-0.772-0.707-2.042-1.013-3.689-0.614C102.952,83.905,106.761,95.236,112.384,91.366z"/>
	<path fill-rule="evenodd" clip-rule="evenodd" d="M154.501,79.685c5.989-1.333,9.044,2.51,9.222,7.069
		c0.402,10.271-14.756,10.738-14.756,0.307C148.968,83.156,150.949,80.474,154.501,79.685z M158.805,91.366
		c2.144-1.475,1.864-6.877,0.307-8.3c-0.772-0.707-2.041-1.013-3.688-0.614C149.372,83.905,153.182,95.236,158.805,91.366z"/>
	<path fill-rule="evenodd" clip-rule="evenodd" d="M13.394,94.441c0-4.92,0-9.839,0-14.756c4.079,0.16,9.016-0.688,11.375,1.536
		c3.506,3.305,2.476,11.263-2.767,13.22C19.134,94.441,16.264,94.441,13.394,94.441z M16.776,91.675
		c8.773,2.674,8.588-11.833,0-9.223C16.776,85.526,16.776,88.598,16.776,91.675z"/>
	<path fill-rule="evenodd" clip-rule="evenodd" d="M28.765,79.685c3.792,0,7.583,0,11.375,0c0,0.922,0,1.843,0,2.767
		c-2.563,0-5.124,0-7.685,0c-0.701,0.424-0.116,2.139-0.309,3.074c2.46,0,4.92,0,7.379,0c0,0.818,0,1.64,0,2.459
		c-2.357,0-4.713,0-7.07,0c-0.706,0.625-0.112,2.552-0.309,3.689c2.666,0,5.33,0,7.994,0c0,0.922,0,1.844,0,2.767
		c-3.792,0-7.583,0-11.375,0C28.765,89.521,28.765,84.602,28.765,79.685z"/>
	<path fill-rule="evenodd" clip-rule="evenodd" d="M41.985,79.685c5.862-0.185,12.409-0.701,12.604,3.994
		c0.062,1.487-0.706,3.047-2.152,3.691c2.123,0.95,1.423,4.724,2.46,6.763c-0.526,0.704-2.346,0.111-3.382,0.308
		c-0.47-1.685-0.199-4.105-1.23-5.227c-1.223-0.52-3.243-0.242-4.918-0.308c0,1.845,0,3.689,0,5.534c-1.127,0-2.254,0-3.382,0
		C41.985,89.521,41.985,84.602,41.985,79.685z M45.367,86.447c2.014-0.034,4.336,0.239,5.534-0.615c0.398-0.892,0.398-2.182,0-3.073
		c-1.197-0.854-3.52-0.582-5.534-0.615C45.367,83.578,45.367,85.012,45.367,86.447z"/>
	<path fill-rule="evenodd" clip-rule="evenodd" d="M56.741,79.685c5.863-0.185,12.409-0.701,12.604,3.994
		c0.062,1.487-0.706,3.047-2.151,3.691c2.123,0.95,1.423,4.724,2.458,6.763c-0.526,0.704-2.346,0.111-3.381,0.308
		c-0.47-1.685-0.198-4.105-1.23-5.227c-1.222-0.52-3.243-0.242-4.918-0.308c0,1.845,0,3.689,0,5.534c-1.127,0-2.255,0-3.382,0
		C56.741,89.521,56.741,84.602,56.741,79.685z M60.123,86.447c2.016-0.034,4.337,0.239,5.534-0.615c0.398-0.892,0.398-2.182,0-3.073
		c-1.196-0.854-3.518-0.582-5.534-0.615C60.123,83.578,60.123,85.012,60.123,86.447z"/>
	<path fill-rule="evenodd" clip-rule="evenodd" d="M69.652,79.685c1.229,0,2.459,0,3.689,0c0.737,2.131,2.145,3.592,3.075,5.532
		c1.372-1.6,2.397-3.547,3.382-5.532c1.23,0,2.458,0,3.688,0c-1.871,4.788-6.298,7.021-5.227,14.756c-1.127,0-2.254,0-3.381,0
		C75.944,86.714,71.421,84.576,69.652,79.685z"/>
	<path fill-rule="evenodd" clip-rule="evenodd" d="M94.247,79.685c0,3.994,0,7.991,0,11.989c2.459,0,4.919,0,7.378,0
		c0,0.922,0,1.844,0,2.767c-3.587,0-7.174,0-10.76,0c0-4.92,0-9.839,0-14.756C91.992,79.685,93.119,79.685,94.247,79.685z"/>
	<path fill-rule="evenodd" clip-rule="evenodd" d="M119.148,79.685c1.229,0,2.459,0,3.689,0c1.487,3.534,3.929,6.11,5.533,9.529
		c0.715-2.563,0.104-6.456,0.308-9.529c1.024,0,2.049,0,3.074,0c0,4.917,0,9.836,0,14.756c-1.127,0-2.254,0-3.382,0
		c-1.875-3.146-3.601-6.441-5.841-9.224c0,3.074,0,6.148,0,9.224c-1.126,0-2.254,0-3.381,0
		C119.148,89.521,119.148,84.602,119.148,79.685z"/>
	<path fill-rule="evenodd" clip-rule="evenodd" d="M134.211,94.441c0-4.92,0-9.839,0-14.756c4.08,0.16,9.017-0.688,11.375,1.536
		c3.506,3.305,2.475,11.263-2.766,13.22C139.95,94.441,137.081,94.441,134.211,94.441z M137.593,91.675
		c8.772,2.674,8.588-11.833,0-9.223C137.593,85.526,137.593,88.598,137.593,91.675z"/>
	<path fill-rule="evenodd" clip-rule="evenodd" d="M165.568,79.685c1.229,0,2.459,0,3.689,0c1.487,3.534,3.93,6.11,5.533,9.529
		c0.716-2.563,0.104-6.456,0.308-9.529c1.025,0,2.049,0,3.074,0c0,4.917,0,9.836,0,14.756c-1.128,0-2.255,0-3.382,0
		c-1.875-3.146-3.601-6.441-5.84-9.224c0,3.074,0,6.148,0,9.224c-1.127,0-2.254,0-3.382,0
		C165.568,89.521,165.568,84.602,165.568,79.685z"/>
	<path fill-rule="evenodd" clip-rule="evenodd" d="M180.94,94.441c0-4.92,0-9.839,0-14.756c4.079,0.16,9.016-0.688,11.375,1.536
		c3.506,3.305,2.475,11.263-2.768,13.22C186.677,94.441,183.809,94.441,180.94,94.441z M184.321,91.675
		c8.773,2.674,8.588-11.833,0-9.223C184.321,85.526,184.321,88.598,184.321,91.675z"/>
	<path fill-rule="evenodd" clip-rule="evenodd" d="M196.003,79.685c3.791,0,7.583,0,11.374,0c0,0.922,0,1.843,0,2.767
		c-2.562,0-5.123,0-7.686,0c-0.701,0.424-0.114,2.139-0.307,3.074c2.459,0,4.919,0,7.377,0c0,0.818,0,1.64,0,2.459
		c-2.356,0-4.713,0-7.071,0c-0.705,0.625-0.111,2.552-0.307,3.689c2.665,0,5.328,0,7.992,0c0,0.922,0,1.844,0,2.767
		c-3.791,0-7.583,0-11.374,0C196.003,89.521,196.003,84.602,196.003,79.685z"/>
	<path fill-rule="evenodd" clip-rule="evenodd" d="M209.53,79.685c5.862-0.185,12.409-0.701,12.604,3.994
		c0.062,1.487-0.706,3.047-2.152,3.691c2.124,0.95,1.423,4.724,2.46,6.763c-0.526,0.704-2.347,0.111-3.383,0.308
		c-0.469-1.685-0.197-4.105-1.229-5.227c-1.223-0.52-3.243-0.242-4.918-0.308c0,1.845,0,3.689,0,5.534c-1.126,0-2.254,0-3.382,0
		C209.53,89.521,209.53,84.602,209.53,79.685z M212.911,86.447c2.015-0.034,4.337,0.239,5.534-0.615
		c0.398-0.892,0.398-2.182,0-3.073c-1.197-0.854-3.52-0.582-5.534-0.615C212.911,83.578,212.911,85.012,212.911,86.447z"/>
	<path fill-rule="evenodd" clip-rule="evenodd" d="M224.286,79.685c5.862-0.185,12.409-0.701,12.604,3.994
		c0.062,1.487-0.707,3.047-2.152,3.691c2.123,0.95,1.422,4.724,2.459,6.763c-0.526,0.704-2.346,0.111-3.381,0.308
		c-0.47-1.685-0.199-4.105-1.229-5.227c-1.223-0.52-3.242-0.242-4.919-0.308c0,1.845,0,3.689,0,5.534c-1.127,0-2.255,0-3.382,0
		C224.286,89.521,224.286,84.602,224.286,79.685z M227.668,86.447c2.015-0.034,4.337,0.239,5.534-0.615
		c0.397-0.892,0.397-2.182,0-3.073c-1.196-0.854-3.519-0.582-5.534-0.615C227.668,83.578,227.668,85.012,227.668,86.447z"/>
	<path fill-rule="evenodd" clip-rule="evenodd" d="M237.198,79.685c1.229,0,2.46,0,3.689,0c0.737,2.131,2.145,3.592,3.074,5.532
		c1.372-1.6,2.397-3.547,3.382-5.532c1.23,0,2.459,0,3.689,0c-1.871,4.788-6.299,7.021-5.227,14.756c-1.127,0-2.254,0-3.381,0
		C243.49,86.714,238.966,84.576,237.198,79.685z"/>
	<path fill-rule="evenodd" clip-rule="evenodd" d="M260.869,91.98c2.255,0,4.509,0,6.763,0c0,0.82,0,1.641,0,2.461
		c-3.585,0-7.172,0-10.759,0c-1.005-4.901,7.973-6.763,7.686-10.146c-0.241-2.814-4.811-3.017-4.304,1.23c-1.025,0-2.049,0-3.074,0
		c-0.64-7.563,10.451-7.634,10.451-1.23C267.632,88.824,262.801,88.771,260.869,91.98z"/>
	<path fill-rule="evenodd" clip-rule="evenodd" d="M272.244,79.991c9.39-2.842,9.749,17.236,0,14.758
		C267.233,93.473,267.313,81.486,272.244,79.991z M274.396,92.29c2.981-0.482,2.608-11.529-1.23-9.838
		C270.789,83.497,270.706,92.883,274.396,92.29z"/>
	<path fill-rule="evenodd" clip-rule="evenodd" d="M299.605,86.447c0.896,0.641,1.895,1.18,2.458,2.151c0,1.128,0,2.256,0,3.382
		c-1.367,2.964-7.993,4.249-10.144,0.923c-1.134-1.754-1.127-5.517,1.844-6.148c-0.714-0.617-1.546-1.12-1.844-2.152
		C291.446,74.838,307.287,81.775,299.605,86.447z M294.685,84.911c1.088,1.436,3.757,0.966,4.304-0.615
		C299.29,81.13,293.612,80.87,294.685,84.911z M296.531,92.596c4.256,0.327,2.927-7.143-1.846-4.305
		C293.735,90.774,294.783,92.463,296.531,92.596z"/>
	<path fill-rule="evenodd" clip-rule="evenodd" d="M287.616,79.991c0,4.816,0,9.634,0,14.45c-0.924,0-1.847,0-2.77,0
		c0-3.075,0-6.149,0-9.224c-0.625-0.706-2.552-0.111-3.688-0.307c0-0.513,0-1.025,0-1.539c0.286-1.149,2.171-0.696,3.075-1.229
		C284.981,81.048,285.132,79.355,287.616,79.991z"/>
	<path fill-rule="evenodd" clip-rule="evenodd" d="M82.257,87.677c2.152,0,4.304,0,6.457,0c0,0.82,0,1.641,0,2.46
		c-2.152,0-4.304,0-6.457,0C82.257,89.317,82.257,88.497,82.257,87.677z"/>
</g>
</svg>
